<svg width="24" height="24" viewBox="0 0 24 24" fill="none" xmlns="http://www.w3.org/2000/svg">
<path d="M11.8455 9.36811L14.7273 12.1955C14.7273 12.1507 14.7273 12.0971 14.7273 12.0523C14.7273 11.3404 14.4399 10.6577 13.9285 10.1543C13.417 9.65091 12.7233 9.36811 12 9.36811C11.9455 9.36811 11.9 9.36811 11.8455 9.36811ZM7.93636 10.0839L9.34545 11.4707C9.3 11.6586 9.27273 11.8465 9.27273 12.0523C9.27273 12.7642 9.56006 13.447 10.0715 13.9503C10.583 14.4537 11.2767 14.7365 12 14.7365C12.2 14.7365 12.4 14.7097 12.5909 14.665L14 16.0518C13.3909 16.3471 12.7182 16.526 12 16.526C10.7945 16.526 9.63832 16.0547 8.78588 15.2157C7.93344 14.3767 7.45455 13.2388 7.45455 12.0523C7.45455 11.3455 7.63636 10.6834 7.93636 10.0839Z" fill="#193768"/>
<path fill-rule="evenodd" clip-rule="evenodd" d="M8.36364 5.96811C7.10137 6.4118 5.39091 7.57864 5.39091 7.57864C3.89091 8.7418 2.70909 10.2628 2 12.0523C3.57273 15.9802 7.45455 18.7628 12 18.7628C13.4091 18.7628 14.4636 18.5225 15.9818 18.0113C17.5 17.5 18.8818 16.3023 18.8818 16.3023C20.2455 15.1839 21.3364 13.7165 22 12.0523C20.4273 8.12443 16.5455 5.3418 12 5.3418C10.7273 5.3418 9.50909 5.56548 8.36364 5.96811ZM14.7273 12.1955L11.8455 9.36811H12C12.7233 9.36811 13.417 9.65091 13.9285 10.1543C14.4399 10.6577 14.7273 11.3404 14.7273 12.0523V12.1955ZM9.34545 11.4707L7.93636 10.0839C7.63636 10.6834 7.45455 11.3455 7.45455 12.0523C7.45455 13.2388 7.93344 14.3767 8.78588 15.2157C9.63832 16.0547 10.7945 16.526 12 16.526C12.7182 16.526 13.3909 16.3471 14 16.0518L12.5909 14.665C12.4 14.7097 12.2 14.7365 12 14.7365C11.2767 14.7365 10.583 14.4537 10.0715 13.9503C9.56006 13.447 9.27273 12.7642 9.27273 12.0523C9.27273 11.8465 9.3 11.6586 9.34545 11.4707Z" fill="#193768"/>
<ellipse cx="11.9932" cy="12.0547" rx="4.5459" ry="4.47266" fill="white"/>
<ellipse cx="12.0075" cy="12.0543" rx="2.71843" ry="2.6842" fill="#193768"/>
</svg>
